<svg width="1200" height="760" viewBox="0 0 1200 760" fill="none" xmlns="http://www.w3.org/2000/svg">
  <rect width="1200" height="760" rx="48" fill="#091525"/>
  <circle cx="934" cy="140" r="92" fill="#FFCF66" fill-opacity="0.22"/>
  <circle cx="228" cy="188" r="170" fill="#59D7FF" fill-opacity="0.12"/>
  <circle cx="830" cy="540" r="210" fill="#2A4D8F" fill-opacity="0.24"/>
  <g opacity="0.9">
    <circle cx="112" cy="94" r="3" fill="#F3F7FB"/>
    <circle cx="320" cy="124" r="2" fill="#F3F7FB"/>
    <circle cx="980" cy="220" r="3" fill="#F3F7FB"/>
    <circle cx="1060" cy="410" r="2" fill="#F3F7FB"/>
    <circle cx="192" cy="602" r="2" fill="#F3F7FB"/>
    <circle cx="744" cy="100" r="2" fill="#F3F7FB"/>
    <circle cx="528" cy="284" r="2" fill="#F3F7FB"/>
  </g>
  <ellipse cx="586" cy="364" rx="242" ry="70" fill="#DDEAF8"/>
  <ellipse cx="592" cy="352" rx="178" ry="46" fill="#F6FBFF"/>
  <ellipse cx="756" cy="352" rx="148" ry="22" fill="#D6E6F5"/>
  <path d="M338 356C406 321 504 302 635 308C773 314 882 346 956 404L875 430C792 383 707 358 622 354C531 350 442 368 353 414L338 356Z" fill="#F8B548"/>
  <path d="M416 344L968 300L1004 322L468 366L416 344Z" fill="#C7D7EA"/>
  <path d="M770 308L838 196L866 204L820 314L770 308Z" fill="#B7CBE1"/>
  <path d="M912 310L1008 264L1028 286L944 326L912 310Z" fill="#AFC5DC"/>
  <path d="M350 364L276 320L304 300L380 342L350 364Z" fill="#D4E2F1"/>
  <path d="M312 390L410 384L424 404L328 420L312 390Z" fill="#A0B7CF"/>
  <ellipse cx="580" cy="354" rx="154" ry="30" fill="#112642" fill-opacity="0.18"/>
  <path d="M174 632C302 580 436 554 576 554C763 554 900 590 1030 646" stroke="#7FE7FF" stroke-width="6" stroke-linecap="round" stroke-opacity="0.45"/>
</svg>
