<svg width="800" height="960" viewBox="0 0 800 960" fill="none" xmlns="http://www.w3.org/2000/svg">
  <rect width="800" height="960" fill="#0A1422"/>
  <circle cx="614" cy="170" r="120" fill="#FFCF66" fill-opacity="0.16"/>
  <circle cx="156" cy="116" r="84" fill="#7FE7FF" fill-opacity="0.12"/>
  <rect x="212" y="264" width="376" height="458" rx="120" fill="#F2C29A"/>
  <path d="M248 336C248 246 314 192 402 192C490 192 552 246 552 334V408H248V336Z" fill="#B4875B"/>
  <path d="M204 748C226 612 292 520 402 520C512 520 578 612 600 748V960H204V748Z" fill="#C4A126"/>
  <path d="M224 744H580L614 960H190L224 744Z" fill="#111820"/>
  <rect x="360" y="590" width="80" height="118" rx="18" fill="#111820"/>
  <path d="M252 384C274 504 334 566 402 566C470 566 530 504 552 384V470C552 584 478 660 402 660C326 660 252 584 252 470V384Z" fill="#EDBA8F"/>
  <ellipse cx="334" cy="420" rx="18" ry="12" fill="#1E2D3E"/>
  <ellipse cx="470" cy="420" rx="18" ry="12" fill="#1E2D3E"/>
  <path d="M364 484C390 500 414 500 440 484" stroke="#7B4B35" stroke-width="12" stroke-linecap="round"/>
  <path d="M312 340C336 312 376 298 416 298C462 298 506 316 536 346" stroke="#9C6A44" stroke-width="26" stroke-linecap="round"/>
  <path d="M252 740C270 660 324 612 402 612C480 612 534 660 552 740" stroke="#F2D979" stroke-width="10" stroke-linecap="round"/>
</svg>
