<svg width="800" height="960" viewBox="0 0 800 960" fill="none" xmlns="http://www.w3.org/2000/svg">
  <rect width="800" height="960" fill="#091322"/>
  <circle cx="608" cy="164" r="120" fill="#FFD36E" fill-opacity="0.16"/>
  <circle cx="154" cy="146" r="88" fill="#7FE7FF" fill-opacity="0.12"/>
  <rect x="214" y="264" width="372" height="462" rx="126" fill="#E6B78E"/>
  <path d="M248 340C258 246 332 194 404 194C478 194 548 248 552 340V420H248V340Z" fill="#5C534C"/>
  <path d="M204 748C230 618 302 530 404 530C506 530 578 618 604 748V960H204V748Z" fill="#C09C45"/>
  <path d="M236 744H572L608 960H200L236 744Z" fill="#16212E"/>
  <rect x="366" y="592" width="76" height="116" rx="18" fill="#16212E"/>
  <path d="M260 396C278 510 338 572 404 572C470 572 530 510 548 396V478C548 592 474 668 404 668C334 668 260 592 260 478V396Z" fill="#ECBD91"/>
  <ellipse cx="338" cy="424" rx="17" ry="11" fill="#1D2738"/>
  <ellipse cx="472" cy="424" rx="17" ry="11" fill="#1D2738"/>
  <path d="M370 490C392 506 416 506 438 490" stroke="#7A5137" stroke-width="10" stroke-linecap="round"/>
  <path d="M286 330C322 302 358 290 404 290C448 290 490 302 520 332" stroke="#5C534C" stroke-width="24" stroke-linecap="round"/>
  <path d="M230 742C248 664 318 614 404 614C490 614 560 664 578 742" stroke="#F2D36E" stroke-width="10" stroke-linecap="round"/>
  <path d="M332 324C362 340 446 340 476 324" stroke="#E6B78E" stroke-width="10" stroke-linecap="round"/>
</svg>
